<?xml version="1.0" encoding="UTF-8"?>
<svg width="800" height="600" viewBox="0 0 800 600" fill="none" xmlns="http://www.w3.org/2000/svg">
    <!-- Background -->
    <rect width="800" height="600" fill="#F8F9FA"/>
    
    <!-- Store Building -->
    <rect x="200" y="200" width="400" height="300" rx="20" fill="#E9ECEF"/>
    <rect x="250" y="300" width="100" height="150" rx="10" fill="#DEE2E6"/>
    <rect x="450" y="300" width="100" height="150" rx="10" fill="#DEE2E6"/>
    <path d="M200 250L400 150L600 250" stroke="#CED4DA" stroke-width="20" stroke-linecap="round"/>
    
    <!-- Door -->
    <rect x="350" y="350" width="100" height="150" rx="10" fill="#ADB5BD"/>
    <circle cx="430" cy="425" r="10" fill="#6C757D"/>
    
    <!-- Products -->
    <rect x="270" y="320" width="60" height="60" rx="5" fill="#0D6EFD"/>
    <rect x="470" y="320" width="60" height="60" rx="5" fill="#0DCAF0"/>
    <rect x="270" y="390" width="60" height="60" rx="5" fill="#198754"/>
    <rect x="470" y="390" width="60" height="60" rx="5" fill="#FFC107"/>
    
    <!-- Shopping Cart -->
    <circle cx="150" cy="500" r="30" fill="#0D6EFD"/>
    <circle cx="200" cy="500" r="30" fill="#0D6EFD"/>
    <rect x="150" y="450" width="100" height="20" rx="10" fill="#0D6EFD"/>
    <path d="M100 480L150 480" stroke="#0D6EFD" stroke-width="20" stroke-linecap="round"/>
    
    <!-- Stars -->
    <path d="M700 100L720 140L680 140L710 160L700 200L730 170L760 200L750 160L780 140L740 140L700 100Z" fill="#FFC107"/>
    <path d="M650 150L670 190L630 190L660 210L650 250L680 220L710 250L700 210L730 190L690 190L650 150Z" fill="#0DCAF0"/>
    <path d="M750 150L770 190L730 190L760 210L750 250L780 220L810 250L800 210L830 190L790 190L750 150Z" fill="#198754"/>
</svg>
