<svg xmlns="http://www.w3.org/2000/svg" viewBox="0 0 640 480">
  <path fill="#006c35" d="M0 0h640v480H0z"/>
  <path fill="#fff" d="M187 177.7c-.7 10.2-3.5 41.6-3.5 41.6l-6.5-1.7s-9.4 42.5-9.4 42.8c0 .3-3.5-1.8-3.5-1.8l-8.2 43.3h-17.6s-10-42.8-10.3-42.8c-.3 0-4.7.6-4.7.6l-8.2-42.2-8.2.6-3-41h82z"/>
  <path fill="#fff" d="M179.4 197.5c-.2 2.3-7 41.6-7 41.6l-5.3-2.3-8.8 42.8h-15.3s-9.4-42.2-9.4-42.5c0-.3-5.8.6-5.8.6l-7.6-41.6-8.2.6-2.4-40.4h76.5z"/>
  <path fill="#fff" d="M216.5 229.3c-1.2 1.2-2.3 2.3-2.3 2.3s3.5 4.7 4.1 7c.6 2.3 1.2 5.8 1.2 5.8s4.1-2.9 5.8-2.9c1.8 0 5.3.6 5.3.6s0-3.5.6-5.3c.6-1.7 2.9-4 2.9-4l-2.3-2.4s1.7-3.5 1.7-4.7c0-1.2-.5-4.7-.5-4.7s-3 1.2-4.7 1.2-4.7-1.2-4.7-1.2-.6 2.4-.6 4.1c0 1.8 1.2 4.7 1.2 4.7s-1.8 1.2-2.4 1.8c-.5.6-1.7 2.3-1.7 2.3s-2.3-2.3-3.5-2.3c-1.2 0-4.1.5-4.1.5s.6 2.4.6 4.1c0 1.8-1.2 4.7-1.2 4.7s2.9 1.2 4.7 1.2c1.7 0 4.7-1.2 4.7-1.2s-.6-2.3-.6-4.1c0-1.8 1.2-4.7 1.2-4.7z"/>
</svg>
